HIERARCHY
ROOT Hips
{
	OFFSET 51.701401 -5.040164 83.959099
	CHANNELS 6 Xposition Yposition Zposition Xrotation Yrotation Zrotation
	JOINT spine
	{
		OFFSET 0.000000 -0.342408 5.954384
		CHANNELS 3 Xrotation Yrotation Zrotation
		JOINT spine1
		{
			OFFSET 0.000000 -0.000001 8.856018
			CHANNELS 3 Xrotation Yrotation Zrotation
			JOINT spine2
			{
				OFFSET 0.000000 -0.000001 8.485672
				CHANNELS 3 Xrotation Yrotation Zrotation
				JOINT Neck
				{
					OFFSET 0.000000 -1.038703 21.786301
					CHANNELS 3 Xrotation Yrotation Zrotation
					JOINT Head
					{
						OFFSET 0.000000 -0.000001 6.582199
						CHANNELS 3 Xrotation Yrotation Zrotation
						End Site
						{
							OFFSET 0.000000 5.254357 15.932602
						}
					}
				}
				JOINT RightShoulder
				{
					OFFSET -3.573071 0.497524 9.163864
					CHANNELS 3 Xrotation Yrotation Zrotation
					JOINT RightArm
					{
						OFFSET 0.000000 -0.000002 12.019196
						CHANNELS 3 Xrotation Yrotation Zrotation
						JOINT RightArmRoll
						{
							OFFSET 0.000000 -0.000001 6.067551
							CHANNELS 3 Xrotation Yrotation Zrotation
							JOINT RightForeArm
							{
								OFFSET 0.000000 -0.000003 17.672592
								CHANNELS 3 Xrotation Yrotation Zrotation
								JOINT RightForeArmRoll
								{
									OFFSET 0.000000 -0.000001 6.808716
									CHANNELS 3 Xrotation Yrotation Zrotation
									JOINT RightHand
									{
										OFFSET 0.000000 -0.000002 13.663605
										CHANNELS 3 Xrotation Yrotation Zrotation
										End Site
										{
											OFFSET 0.000000 0.000000 0.100006
										}
									}
								}
							}
						}
					}
				}
				JOINT LeftShoulder
				{
					OFFSET 3.573071 0.497524 9.163864
					CHANNELS 3 Xrotation Yrotation Zrotation
					JOINT LeftArm
					{
						OFFSET 0.000000 -0.000002 12.019196
						CHANNELS 3 Xrotation Yrotation Zrotation
						JOINT LeftArmRoll
						{
							OFFSET 0.000000 -0.000001 6.067551
							CHANNELS 3 Xrotation Yrotation Zrotation
							JOINT LeftForeArm
							{
								OFFSET 0.000000 -0.000003 17.672592
								CHANNELS 3 Xrotation Yrotation Zrotation
								JOINT LeftForeArmRoll
								{
									OFFSET 0.000000 -0.000001 6.808716
									CHANNELS 3 Xrotation Yrotation Zrotation
									JOINT LeftHand
									{
										OFFSET 0.000000 -0.000002 13.663605
										CHANNELS 3 Xrotation Yrotation Zrotation
										End Site
										{
											OFFSET 0.000000 0.000000 0.100006
										}
									}
								}
							}
						}
					}
				}
			}
		}
	}
	JOINT RightUpLeg
	{
		OFFSET -5.277740 0.811859 -0.967796
		CHANNELS 3 Xrotation Yrotation Zrotation
		JOINT RightUpLegRoll
		{
			OFFSET 0.000000 -0.000003 16.021400
			CHANNELS 3 Xrotation Yrotation Zrotation
			JOINT RightLeg
			{
				OFFSET 0.000000 0.000003 -19.840096
				CHANNELS 3 Xrotation Yrotation Zrotation
				JOINT RightLegRoll
				{
					OFFSET 0.000000 -0.000003 19.904999
					CHANNELS 3 Xrotation Yrotation Zrotation
					JOINT RightFoot
					{
						OFFSET 0.000000 -0.000003 16.567497
						CHANNELS 3 Xrotation Yrotation Zrotation
						JOINT RightToeBase
						{
							OFFSET 0.000000 -0.000002 13.849602
							CHANNELS 3 Xrotation Yrotation Zrotation
							End Site
							{
								OFFSET 0.005871 0.773116 6.707275
							}
						}
					}
				}
			}
		}
	}
	JOINT LeftUpLeg
	{
		OFFSET 5.277740 0.811859 -0.967796
		CHANNELS 3 Xrotation Yrotation Zrotation
		JOINT LeftUpLegRoll
		{
			OFFSET 0.000000 -0.000003 16.021500
			CHANNELS 3 Xrotation Yrotation Zrotation
			JOINT LeftLeg
			{
				OFFSET 0.000000 -0.000003 19.839996
				CHANNELS 3 Xrotation Yrotation Zrotation
				JOINT LeftLegRoll
				{
					OFFSET 0.000000 -0.000003 20.089005
					CHANNELS 3 Xrotation Yrotation Zrotation
					JOINT LeftFoot
					{
						OFFSET 0.000000 -0.000003 16.383499
						CHANNELS 3 Xrotation Yrotation Zrotation
						JOINT LeftToeBase
						{
							OFFSET 0.000000 -0.000002 13.849594
							CHANNELS 3 Xrotation Yrotation Zrotation
							End Site
							{
								OFFSET -0.026310 0.773116 6.707275
							}
						}
					}
				}
			}
		}
	}
}
MOTION
Frames: 10
Frame Time: 0.041667
53.973301 -0.505415 84.047203 -6.303512 -1.964908 -2.290456 1.137722 -0.136753 0.067232 6.278432 -0.271433 0.133824 7.923519 -0.269826 0.143256 30.602932 10.125901 -4.226353 21.475582 -5.206929 -2.483456 -5.609545 -59.390305 -6.595611 -31.751804 -128.748724 -50.990787 0.000001 -0.000000 0.000000 -0.027734 3.638741 -1.990369 0.000002 0.000002 -3.011601 -5.000145 -7.999930 0.000015 -11.311227 60.009543 13.366688 -30.958229 131.659464 51.568857 0.000001 -0.000003 0.000000 -0.039356 -3.643571 1.990759 -0.000005 -0.000005 3.011602 -5.000165 7.999920 -0.000007 -3.423074 -175.609819 4.988289 -179.999991 0.000005 -1.074001 166.787810 -3.479633 -0.823368 0.000000 0.000003 0.204267 70.761668 6.865549 2.088337 25.456969 -7.352506 0.000010 -1.626103 -178.174733 2.043282 -0.000006 -0.000004 -1.091950 -11.222967 1.193685 0.469250 -0.000001 -0.000005 -0.176036 70.017779 -6.873616 -2.123414 25.456875 7.352763 0.000002 
53.973000 -0.492251 84.047997 -6.243742 -1.955918 -2.282679 1.137161 -0.138304 0.067199 6.277324 -0.274528 0.134474 7.922412 -0.272917 0.143156 30.562334 10.129270 -4.230392 21.459122 -5.226862 -2.486148 -5.625008 -59.377710 -6.612786 -31.755489 -128.765568 -51.006815 0.000001 -0.000000 0.000003 -0.027734 3.638741 -1.990366 0.000001 0.000002 -3.011599 -5.000143 -7.999930 0.000015 -11.304736 60.002939 13.358709 -30.964348 131.663344 51.576654 0.000000 -0.000003 0.000002 -0.039356 -3.643571 1.990756 -0.000003 -0.000005 3.011599 -5.000163 7.999919 -0.000005 -3.486678 -175.632072 4.959094 -179.999991 0.000005 -1.073004 166.792700 -3.467039 -0.822101 0.000000 0.000003 0.204268 70.756347 6.865552 2.088268 25.456969 -7.352505 0.000009 -1.709910 -178.181809 2.046541 -0.000005 -0.000004 -1.091270 -11.250459 1.189766 0.470148 -0.000001 -0.000005 -0.176252 70.015450 -6.873619 -2.123359 25.456880 7.352763 0.000002 
53.980598 -0.464875 84.044907 -6.184627 -1.947259 -2.275100 1.136613 -0.139758 0.067150 6.276215 -0.277430 0.135128 7.921305 -0.275815 0.143019 30.522316 10.132318 -4.234392 21.442633 -5.246264 -2.488909 -5.641797 -59.365559 -6.631563 -31.759762 -128.782575 -51.023497 0.000002 -0.000001 0.000000 -0.027735 3.638741 -1.990367 0.000002 0.000002 -3.011602 -5.000144 -7.999930 0.000013 -11.297906 59.996163 13.350338 -30.969789 131.667018 51.583832 -0.000000 -0.000003 0.000001 -0.039356 -3.643570 1.990762 -0.000003 -0.000005 3.011600 -5.000162 7.999920 -0.000007 -3.549685 -175.654324 4.930464 -179.999991 0.000005 -1.073004 166.797386 -3.453471 -0.821629 0.000000 0.000003 0.204268 70.751027 6.865556 2.088297 25.456969 -7.352507 0.000010 -1.792713 -178.189882 2.049965 -0.000006 -0.000004 -1.090620 -11.277447 1.185997 0.471013 -0.000001 -0.000005 -0.176453 70.013011 -6.873622 -2.123411 25.456880 7.352763 0.000002 
53.977402 -0.463578 84.039001 -6.125978 -1.938814 -2.267668 1.136061 -0.141145 0.067089 6.275127 -0.280196 0.135782 7.920205 -0.278576 0.142856 30.482670 10.135054 -4.238319 21.426242 -5.265297 -2.491728 -5.659450 -59.353470 -6.651374 -31.764976 -128.798817 -51.041454 0.000000 -0.000001 0.000001 -0.027735 3.638741 -1.990367 0.000002 0.000002 -3.011599 -5.000144 -7.999931 0.000014 -11.290882 59.989292 13.341731 -30.974932 131.670625 51.590690 0.000001 -0.000003 -0.000000 -0.039358 -3.643570 1.990758 -0.000003 -0.000005 3.011598 -5.000164 7.999920 -0.000007 -3.612271 -175.676564 4.902264 -179.999991 0.000005 -1.071993 166.801989 -3.440886 -0.821384 0.000000 0.000003 0.204268 70.745802 6.865528 2.088314 25.456969 -7.352507 0.000010 -1.874829 -178.195974 2.053427 -0.000004 -0.000004 -1.089990 -11.304140 1.182326 0.471854 -0.000001 -0.000005 -0.176642 70.010566 -6.873589 -2.123356 25.456877 7.352764 0.000002 
53.969200 -0.475113 84.042610 -6.067609 -1.930502 -2.260328 1.135515 -0.142491 0.067022 6.274028 -0.282886 0.136438 7.919117 -0.281261 0.142678 30.443229 10.137769 -4.242289 21.409739 -5.284133 -2.494600 -5.677628 -59.341647 -6.671820 -31.769676 -128.815961 -51.058662 0.000002 -0.000001 -0.000000 -0.027733 3.638741 -1.990370 0.000002 0.000002 -3.011601 -5.000144 -7.999930 0.000017 -11.283766 59.982441 13.333008 -30.979235 131.674996 51.596581 0.000000 -0.000003 0.000001 -0.039357 -3.643570 1.990760 -0.000004 -0.000005 3.011600 -5.000164 7.999921 -0.000005 -3.674613 -175.697833 4.874246 -179.999991 0.000005 -1.070995 166.806552 -3.428287 -0.820154 -0.000000 0.000003 0.204268 70.740583 6.865534 2.088237 25.456967 -7.352507 0.000009 -1.956537 -178.203051 2.056974 -0.000005 -0.000004 -1.089370 -11.330630 1.178707 0.472679 -0.000001 -0.000005 -0.176827 70.008018 -6.873585 -2.123414 25.456873 7.352764 0.000002 
53.974201 -0.461218 84.037895 -6.009292 -1.922197 -2.253017 1.134963 -0.143828 0.066953 6.272929 -0.285554 0.137094 7.918018 -0.283926 0.142496 30.403781 10.140388 -4.246196 21.393334 -5.302901 -2.497467 -5.695909 -59.329817 -6.692399 -31.774515 -128.833145 -51.075980 0.000001 -0.000001 0.000001 -0.027736 3.638741 -1.990369 0.000002 0.000002 -3.011599 -5.000143 -7.999931 0.000013 -11.276632 59.975584 13.324255 -30.983975 131.678479 51.603029 0.000002 -0.000003 0.000002 -0.039356 -3.643570 1.990756 -0.000003 -0.000005 3.011601 -5.000163 7.999918 -0.000006 -3.736903 -175.720086 4.846403 -179.999991 0.000005 -1.070995 166.811046 -3.415685 -0.819915 0.000000 0.000003 0.204269 70.735372 6.865535 2.088157 25.456969 -7.352506 0.000008 -2.038152 -178.210140 2.060564 -0.000005 -0.000004 -1.088750 -11.357021 1.175108 0.473498 -0.000001 -0.000005 -0.177009 70.005471 -6.873584 -2.123371 25.456877 7.352762 0.000002 
53.972000 -0.437809 84.038391 -5.950853 -1.913818 -2.245694 1.134411 -0.145186 0.066886 6.271841 -0.288262 0.137749 7.916919 -0.286630 0.142321 30.364340 10.143174 -4.250184 21.376839 -5.321780 -2.500355 -5.713913 -59.317802 -6.712635 -31.779204 -128.850289 -51.093172 0.000002 -0.000001 0.000001 -0.027735 3.638740 -1.990372 0.000002 0.000002 -3.011598 -5.000145 -7.999932 0.000016 -11.269503 59.968617 13.315529 -30.988859 131.681990 51.609599 -0.000000 -0.000003 0.000002 -0.039357 -3.643570 1.990757 -0.000003 -0.000004 3.011601 -5.000162 7.999920 -0.000006 -3.799314 -175.741341 4.818434 -179.999991 0.000005 -1.069999 166.815541 -3.403097 -0.818699 0.000000 0.000002 0.204268 70.730147 6.865538 2.088080 25.456967 -7.352507 0.000011 -2.119966 -178.217230 2.064156 -0.000006 -0.000004 -1.088130 -11.383510 1.171479 0.474319 -0.000001 -0.000005 -0.177195 70.002923 -6.873581 -2.123329 25.456880 7.352763 0.000002 
53.968800 -0.437072 84.036293 -5.892071 -1.905259 -2.238296 1.133862 -0.146591 0.066829 6.270732 -0.291067 0.138402 7.915823 -0.289431 0.142165 30.324510 10.146082 -4.254133 21.360356 -5.340925 -2.503212 -5.731301 -59.305822 -6.732118 -31.783602 -128.867351 -51.110049 0.000001 -0.000000 0.000002 -0.027733 3.638741 -1.990370 0.000001 0.000002 -3.011602 -5.000145 -7.999932 0.000014 -11.262587 59.961835 13.307038 -30.994149 131.685624 51.616569 0.000000 -0.000003 0.000001 -0.039357 -3.643570 1.990758 -0.000006 -0.000005 3.011601 -5.000164 7.999919 -0.000003 -3.862025 -175.763607 4.790325 -179.999991 0.000005 -1.069001 166.820212 -3.390496 -0.818452 0.000000 0.000003 0.204268 70.724935 6.865539 2.088002 25.456965 -7.352506 0.000009 -2.202266 -178.224306 2.067725 -0.000003 -0.000004 -1.087500 -11.410303 1.167781 0.475154 -0.000001 -0.000005 -0.177388 70.000396 -6.873612 -2.123291 25.456877 7.352763 0.000002 
53.981998 -0.413009 84.032990 -5.832767 -1.896418 -2.230791 1.133303 -0.148074 0.066784 6.269634 -0.294028 0.139054 7.914724 -0.292386 0.142038 30.284406 10.149275 -4.258150 21.343979 -5.360469 -2.506023 -5.747592 -59.293466 -6.750304 -31.787595 -128.884263 -51.126500 0.000001 -0.000000 0.000001 -0.027734 3.638741 -1.990369 0.000002 0.000002 -3.011602 -5.000145 -7.999931 0.000015 -11.255907 59.955148 13.298831 -30.999725 131.689339 51.623939 0.000000 -0.000003 0.000001 -0.039356 -3.643570 1.990757 -0.000006 -0.000005 3.011600 -5.000163 7.999920 -0.000007 -3.925211 -175.786871 4.761917 -179.999991 0.000005 -1.069002 166.824898 -3.377896 -0.817225 0.000000 0.000002 0.204269 70.719622 6.865537 2.087931 25.456967 -7.352505 0.000010 -2.285367 -178.231409 2.071239 -0.000005 -0.000004 -1.086840 -11.437392 1.163955 0.476005 -0.000001 -0.000005 -0.177594 69.998046 -6.873582 -2.123331 25.456877 7.352763 0.000002 
54.003799 -0.373499 84.045700 -5.772733 -1.887178 -2.223120 1.132742 -0.149664 0.066757 6.268526 -0.297201 0.139703 7.913617 -0.295555 0.141952 30.243623 10.152881 -4.262195 21.327535 -5.380599 -2.508767 -5.762444 -59.280687 -6.766743 -31.791778 -128.900204 -51.143125 0.000001 -0.000001 0.000002 -0.027733 3.638741 -1.990369 0.000001 0.000002 -3.011599 -5.000144 -7.999931 0.000014 -11.249517 59.948536 13.290988 -31.005972 131.693260 51.631927 0.000001 -0.000003 0.000003 -0.039356 -3.643570 1.990758 -0.000004 -0.000005 3.011601 -5.000162 7.999921 -0.000008 -3.989056 -175.810148 4.732994 -179.999991 0.000005 -1.068004 166.829884 -3.365313 -0.816968 -0.000000 0.000003 0.204268 70.714294 6.865536 2.087859 25.456964 -7.352507 0.000009 -2.369547 -178.239496 2.074702 -0.000005 -0.000004 -1.086149 -11.465083 1.159979 0.476887 -0.000001 -0.000005 -0.177815 69.995717 -6.873584 -2.123275 25.456877 7.352764 0.000002 
